grf
version=1
nRows=14
nColumns=37
inDegrees=no
endheader
time	ground_force_1_vx	ground_force_1_vy	ground_force_1_vz	ground_force_1_px	ground_force_1_py	ground_force_1_pz	ground_moment_1_mx	ground_moment_1_my	ground_moment_1_mz	ground_force_2_vx	ground_force_2_vy	ground_force_2_vz	ground_force_2_px	ground_force_2_py	ground_force_2_pz	ground_moment_2_mx	ground_moment_2_my	ground_moment_2_mz	ground_force_3_vx	ground_force_3_vy	ground_force_3_vz	ground_force_3_px	ground_force_3_py	ground_force_3_pz	ground_moment_3_mx	ground_moment_3_my	ground_moment_3_mz	ground_force_4_vx	ground_force_4_vy	ground_force_4_vz	ground_force_4_px	ground_force_4_py	ground_force_4_pz	ground_moment_4_mx	ground_moment_4_my	ground_moment_4_mz
      2.71000000	      0.00000000	     -0.00000000	      0.00000000	      0.00000000	      0.00000000	      0.00000000	      0.00000000	      0.00000000	      0.00000000	     -6.77397108	      4.34550858	    -69.41178894	   -202.64271722	  -1013.86186129	      0.00000000	      0.00000000	      0.00000000	     71.16738195	      3.74168786	    -12.66153464	   -720.71124268	   -331.39901884	   -743.07858233	      0.00000000	      0.00000000	      0.00000000	   1161.26257012	      0.00000000	     -0.00000000	      0.00000000	      0.00000000	      0.00000000	      0.00000000	      0.00000000	      0.00000000	      0.00000000
      2.72000000	      0.00000000	     -0.00000000	      0.00000000	      0.00000000	      0.00000000	      0.00000000	      0.00000000	      0.00000000	      0.00000000	     -6.36556196	      3.56521606	    -62.80344391	   -204.22368352	  -1017.10164202	      0.00000000	      0.00000000	      0.00000000	    348.12438118	      5.70903143	    -12.63000157	   -728.49322510	   -332.19784398	   -742.44810982	      0.00000000	      0.00000000	      0.00000000	   1414.40710597	      0.00000000	     -0.00000000	      0.00000000	      0.00000000	      0.00000000	      0.00000000	      0.00000000	      0.00000000	      0.00000000
      2.73000000	      0.00000000	     -0.00000000	      0.00000000	      0.00000000	      0.00000000	      0.00000000	      0.00000000	      0.00000000	      0.00000000	     -6.71706915	      2.95702147	    -52.91470718	   -195.23979695	  -1003.02151410	      0.00000000	      0.00000000	     -0.00000000	    -69.80653476	      7.73899920	    -12.79645987	   -734.34918213	   -332.49008274	   -743.08466262	      0.00000000	      0.00000000	      0.00000000	   1541.10491166	      0.00000000	     -0.00000000	      0.00000000	      0.00000000	      0.00000000	      0.00000000	      0.00000000	      0.00000000	      0.00000000
      2.74000000	      0.00000000	     -0.00000000	      0.00000000	      0.00000000	      0.00000000	      0.00000000	      0.00000000	      0.00000000	      0.00000000	     -6.96321201	      2.40173316	    -45.72731400	   -197.39150778	  -1011.70662688	      0.00000000	      0.00000000	     -0.00000000	    -59.70253696	      9.84689593	    -13.64317408	   -744.55578613	   -333.61260090	   -741.67949280	      0.00000000	     -0.00000000	     -0.00000000	   1691.26663984	      0.00000000	     -0.00000000	      0.00000000	      0.00000000	      0.00000000	      0.00000000	      0.00000000	      0.00000000	      0.00000000
      2.75000000	      0.00000000	     -0.00000000	      0.00000000	      0.00000000	      0.00000000	      0.00000000	      0.00000000	      0.00000000	      0.00000000	     -7.53607798	      1.05397367	    -37.06639099	   -189.63744271	   -988.09870191	      0.00000000	      0.00000000	     -0.00000000	   -261.24714960	     12.43507840	    -13.46671499	   -751.37426758	   -333.95289769	   -742.04881773	      0.00000000	     -0.00000000	     -0.00000000	   1643.27279755	      0.00000000	     -0.00000000	      0.00000000	      0.00000000	      0.00000000	      0.00000000	      0.00000000	      0.00000000	      0.00000000
      2.76000000	      0.00000000	     -0.00000000	      0.00000000	      0.00000000	      0.00000000	      0.00000000	      0.00000000	      0.00000000	      0.00000000	     -8.04447556	      0.03499644	    -30.58798027	   -185.14457229	  -1000.05919850	      0.00000000	      0.00000000	     -0.00000000	   -251.82488392	     13.54175928	    -13.30572247	   -758.29632568	   -334.52084394	   -741.92790416	      0.00000000	     -0.00000000	     -0.00000000	   2021.86700530	      0.00000000	     -0.00000000	      0.00000000	      0.00000000	      0.00000000	      0.00000000	      0.00000000	      0.00000000	      0.00000000
      2.77000000	      0.00000000	     -0.00000000	      0.00000000	      0.00000000	      0.00000000	      0.00000000	      0.00000000	      0.00000000	      0.00000000	     -8.51781559	     -0.18183438	    -24.23280907	   -189.43146364	   -995.00097316	      0.00000000	      0.00000000	     -0.00000000	   -196.78187752	     14.84555989	    -13.01401363	   -766.73693848	   -334.43648694	   -741.42599581	      0.00000000	      0.00000000	      0.00000000	   2174.09919889	      0.00000000	     -0.00000000	      0.00000000	      0.00000000	      0.00000000	      0.00000000	      0.00000000	      0.00000000	      0.00000000
      2.78000000	      0.00000000	     -0.00000000	      0.00000000	      0.00000000	      0.00000000	      0.00000000	      0.00000000	      0.00000000	      0.00000000	      0.00000000	     -0.00000000	      0.00000000	      0.00000000	      0.00000000	      0.00000000	      0.00000000	      0.00000000	      0.00000000	     15.75978831	    -13.24825425	   -772.65887451	   -335.04469919	   -741.75144274	      0.00000000	     -0.00000000	     -0.00000000	   2386.15684513	      0.00000000	     -0.00000000	      0.00000000	      0.00000000	      0.00000000	      0.00000000	      0.00000000	      0.00000000	      0.00000000
      2.79000000	      0.00000000	     -0.00000000	      0.00000000	      0.00000000	      0.00000000	      0.00000000	      0.00000000	      0.00000000	      0.00000000	      0.00000000	     -0.00000000	      0.00000000	      0.00000000	      0.00000000	      0.00000000	      0.00000000	      0.00000000	      0.00000000	     16.83975860	    -13.98225836	   -777.68103027	   -335.01599330	   -741.81756165	      0.00000000	      0.00000000	      0.00000000	   2425.76589961	      0.00000000	     -0.00000000	      0.00000000	      0.00000000	      0.00000000	      0.00000000	      0.00000000	      0.00000000	      0.00000000
      2.80000000	      0.00000000	     -0.00000000	      0.00000000	      0.00000000	      0.00000000	      0.00000000	      0.00000000	      0.00000000	      0.00000000	      0.00000000	     -0.00000000	      0.00000000	      0.00000000	      0.00000000	      0.00000000	      0.00000000	      0.00000000	      0.00000000	     17.74215575	    -14.05830825	   -780.06469727	   -335.12958615	   -741.91973390	      0.00000000	      0.00000000	      0.00000000	   2479.11964106	      0.00000000	     -0.00000000	      0.00000000	      0.00000000	      0.00000000	      0.00000000	      0.00000000	      0.00000000	      0.00000000
      2.81000000	      0.00000000	     -0.00000000	      0.00000000	      0.00000000	      0.00000000	      0.00000000	      0.00000000	      0.00000000	      0.00000000	      0.00000000	     -0.00000000	      0.00000000	      0.00000000	      0.00000000	      0.00000000	      0.00000000	      0.00000000	      0.00000000	     18.36313126	    -13.96991127	   -782.90856934	   -335.70010038	   -741.94975666	      0.00000000	      0.00000000	      0.00000000	   2431.73821207	      0.00000000	     -0.00000000	      0.00000000	      0.00000000	      0.00000000	      0.00000000	      0.00000000	      0.00000000	      0.00000000
      2.82000000	      0.00000000	     -0.00000000	      0.00000000	      0.00000000	      0.00000000	      0.00000000	      0.00000000	      0.00000000	      0.00000000	      0.00000000	     -0.00000000	      0.00000000	      0.00000000	      0.00000000	      0.00000000	      0.00000000	      0.00000000	      0.00000000	     19.57672577	    -13.04337959	   -781.80987549	   -336.01140838	   -742.84351329	      0.00000000	     -0.00000000	     -0.00000000	   2584.10186903	      0.00000000	     -0.00000000	      0.00000000	      0.00000000	      0.00000000	      0.00000000	      0.00000000	      0.00000000	      0.00000000
      2.83000000	      0.00000000	     -0.00000000	      0.00000000	      0.00000000	      0.00000000	      0.00000000	      0.00000000	      0.00000000	      0.00000000	      0.00000000	     -0.00000000	      0.00000000	      0.00000000	      0.00000000	      0.00000000	      0.00000000	      0.00000000	      0.00000000	     21.03947536	    -11.82015317	   -782.79235840	   -336.76573207	   -743.02244637	      0.00000000	     -0.00000000	      0.00000000	   2696.71788265	      0.00000000	     -0.00000000	      0.00000000	      0.00000000	      0.00000000	      0.00000000	      0.00000000	      0.00000000	      0.00000000
      2.84000000	      0.00000000	     -0.00000000	      0.00000000	      0.00000000	      0.00000000	      0.00000000	      0.00000000	      0.00000000	      0.00000000	      0.00000000	     -0.00000000	      0.00000000	      0.00000000	      0.00000000	      0.00000000	      0.00000000	      0.00000000	      0.00000000	     21.58660988	    -10.48052309	   -782.03698730	   -337.07399688	   -743.02829653	      0.00000000	     -0.00000000	     -0.00000000	   2865.14119298	      0.00000000	     -0.00000000	      0.00000000	      0.00000000	      0.00000000	      0.00000000	      0.00000000	      0.00000000	      0.00000000
